<svg width="35" height="35" viewBox="0 0 35 35" fill="none" xmlns="http://www.w3.org/2000/svg">
<path d="M21.875 14.5833L20.4371 14.3442C20.4024 14.553 20.4135 14.7669 20.4698 14.9709C20.5261 15.175 20.6261 15.3644 20.7629 15.5259C20.8997 15.6875 21.0701 15.8173 21.2621 15.9063C21.4542 15.9954 21.6633 16.0416 21.875 16.0417V14.5833ZM5.83333 14.5833V13.125C5.44656 13.125 5.07563 13.2786 4.80214 13.5521C4.52865 13.8256 4.375 14.1966 4.375 14.5833H5.83333ZM8.75 30.625H25.3167V27.7083H8.75V30.625ZM27.0667 13.125H21.875V16.0417H27.0667V13.125ZM23.3144 14.8225L24.4883 7.77146L21.6125 7.29167L20.4371 14.3442L23.3144 14.8225ZM21.6125 4.375H21.3004V7.29167H21.6125V4.375ZM16.4456 6.97229L12.7794 12.476L15.206 14.0948L18.8752 8.59104L16.4456 6.97229ZM11.5646 13.125H5.83333V16.0417H11.5646V13.125ZM4.375 14.5833V26.25H7.29167V14.5833H4.375ZM29.6071 27.1075L31.3571 18.3575L28.4987 17.7858L26.7487 26.5358L29.6071 27.1075ZM12.7794 12.476C12.6462 12.6757 12.4643 12.8394 12.2526 12.9526C12.0409 13.0658 11.8046 13.125 11.5646 13.125V16.0417C12.2848 16.0416 12.9939 15.8638 13.6289 15.5239C14.2638 15.184 14.8051 14.6926 15.2046 14.0933L12.7794 12.476ZM24.4883 7.77146C24.558 7.3537 24.5359 6.92578 24.4234 6.51745C24.311 6.10912 24.111 5.73017 23.8373 5.40694C23.5636 5.08371 23.2229 4.82397 22.8386 4.64576C22.4544 4.46755 22.036 4.37516 21.6125 4.375V7.29167L24.4883 7.77146ZM27.0667 16.0417C27.2825 16.0416 27.4956 16.0894 27.6907 16.1816C27.8858 16.2739 28.0579 16.4083 28.1948 16.5751C28.3317 16.742 28.4298 16.9371 28.4821 17.1465C28.5344 17.3559 28.541 17.5742 28.4987 17.7858L31.3571 18.3575C31.4839 17.7229 31.4684 17.0681 31.3116 16.4402C31.1549 15.8123 30.8608 15.2271 30.4505 14.7266C30.0403 14.2261 29.5241 13.8228 28.9392 13.5459C28.3543 13.2689 27.7153 13.1252 27.0681 13.125L27.0667 16.0417ZM25.3167 30.625C26.3282 30.6251 27.3085 30.2746 28.0907 29.6333C28.873 28.992 29.4088 28.0994 29.6071 27.1075L26.7487 26.5358C26.6826 26.8668 26.5037 27.1646 26.2425 27.3784C25.9814 27.5922 25.6542 27.7088 25.3167 27.7083V30.625ZM21.3004 4.375C20.3402 4.37502 19.3948 4.61209 18.5481 5.06517C17.7015 5.51826 16.9783 6.17334 16.4456 6.97229L18.8752 8.59104C19.1415 8.19143 19.5008 7.86375 19.9242 7.63707C20.3475 7.4104 20.8202 7.29175 21.3004 7.29167V4.375ZM8.75 27.7083C8.36323 27.7083 7.99229 27.5547 7.7188 27.2812C7.44531 27.0077 7.29167 26.6368 7.29167 26.25H4.375C4.375 27.4103 4.83594 28.5231 5.65641 29.3436C6.47688 30.1641 7.58968 30.625 8.75 30.625V27.7083Z" fill="#3E456F"/>
<path d="M11.6667 14.5833V29.1667" stroke="#3E456F" stroke-width="3"/>
</svg>
